<svg width="58" height="59" viewBox="0 0 58 59" fill="none" xmlns="http://www.w3.org/2000/svg">
<path d="M49.0363 39.2546C47.6302 38.7273 46.0484 38.9031 44.6423 39.7819L36.206 44.8788C35.8545 44.6152 35.5029 44.3516 35.1514 44.2637L22.409 39.694C21.4423 39.3425 20.3878 39.3425 19.509 39.7819C19.509 39.7819 19.4211 39.7819 19.4211 39.8698L14.3242 42.9455V42.6819C14.3242 41.7152 13.5332 40.9243 12.5666 40.9243H8.3484C7.38173 40.9243 6.59082 41.7152 6.59082 42.6819V55.8637C6.59082 56.8304 7.38173 57.6213 8.3484 57.6213H12.4787C13.4454 57.6213 14.2363 56.8304 14.2363 55.8637V55.4243C16.1696 54.3698 16.9605 53.4031 18.2787 53.5788L32.3393 56.6546C33.4817 57.0061 34.712 56.7425 35.7666 56.0394L50.0908 44.7031C52.0242 43.3849 51.8484 40.3091 49.0363 39.2546ZM8.3484 55.8637V42.6819H12.4787V55.8637H8.3484ZM49.0363 43.297C34.4484 54.3698 34.7999 55.5122 32.7787 54.897L18.6302 51.8213H18.5423C16.5211 51.4698 15.1151 52.8758 14.2363 53.3152V44.8788L20.212 41.2758C20.7393 41.1001 21.2666 41.1001 21.7939 41.2758L34.5363 45.8455C35.6787 46.2849 36.1181 47.691 35.4151 48.6576C34.8878 49.3607 34.009 49.6243 33.1302 49.2728L25.5726 46.3728C25.1332 46.197 24.606 46.4607 24.4302 46.9001C24.2545 47.3394 24.5181 47.8667 24.9575 48.0425L32.5151 50.9425C34.0969 51.6455 35.8545 51.1182 36.8211 49.8001C37.5242 48.8334 37.7878 47.691 37.2605 46.3728L45.609 41.3637C46.4878 40.8364 47.5423 40.6607 48.509 41.0122C49.8272 41.4516 49.9151 42.6819 49.0363 43.297Z" fill="white"/>
<path d="M27.5056 30.4666C28.2966 30.9939 28.8238 31.8727 28.9996 32.7515C28.2087 33.1909 27.7693 34.0697 27.7693 34.9484C27.7693 36.1787 28.6481 37.2333 29.8784 37.4969L30.2299 40.3091C30.3178 40.7484 30.6693 41.1 31.1087 41.1H37.9632C38.4026 41.1 38.7541 40.7484 38.842 40.3091L39.1935 37.4091C40.2481 37.0575 41.1269 36.0909 41.1269 34.9484C41.1269 33.9818 40.5996 33.1909 39.8966 32.7515C39.9844 31.8727 40.5117 30.9939 41.3905 30.3787C44.642 28.0939 46.6632 24.403 46.6632 20.4484C46.6632 13.5939 40.9511 8.05754 34.0087 8.40905C27.7693 8.67269 22.5844 14.0333 22.4966 20.2727C22.2329 24.403 24.1663 28.1818 27.5056 30.4666ZM31.8117 39.4303L31.636 37.6727H37.3481L37.1723 39.4303H31.8117ZM38.3147 35.9151H30.3178C29.8784 35.9151 29.439 35.5636 29.439 35.0363C29.439 34.5969 29.7905 34.1575 30.3178 34.1575H38.3147C38.7541 34.1575 39.1935 34.5091 39.1935 35.0363C39.1935 35.4757 38.842 35.9151 38.3147 35.9151ZM33.8329 10.2545C39.7208 9.99087 44.642 14.7363 44.642 20.5363C44.642 23.9636 42.9723 27.1272 40.1602 29.0606C38.9299 29.8515 38.139 31.0818 37.9632 32.4878H30.7572C30.5814 31.1697 29.7905 29.9394 28.5602 29.0606C25.7481 27.1272 24.0784 23.8757 24.0784 20.4484C24.1663 15.0878 28.5602 10.5181 33.8329 10.2545Z" fill="white"/>
<path d="M34.0965 14.6485C37.4359 14.4728 40.2481 17.197 40.2481 20.5364C40.2481 21.0637 40.5996 21.4152 41.1269 21.4152C41.6541 21.4152 42.0056 21.0637 42.0056 20.5364C42.0056 16.2304 38.4026 12.7152 34.0087 12.891C33.4814 12.891 33.1299 13.3304 33.1299 13.7697C33.1299 14.297 33.5693 14.6485 34.0965 14.6485Z" fill="white"/>
<path d="M34.3602 6.56363C34.8875 6.56363 35.239 6.21212 35.239 5.68484V2.25757C35.239 1.7303 34.8875 1.37878 34.3602 1.37878C33.833 1.37878 33.4814 1.7303 33.4814 2.25757V5.68484C33.4814 6.21212 33.833 6.56363 34.3602 6.56363Z" fill="white"/>
<path d="M28.1216 7.00304C28.2974 7.35456 28.561 7.53032 28.9125 7.53032C29.0004 7.53032 29.1762 7.53032 29.264 7.44244C29.7034 7.26668 29.9671 6.73941 29.7034 6.30001L28.3852 3.13638C28.2095 2.69698 27.6822 2.43335 27.2428 2.69698C26.8034 2.87274 26.5398 3.40001 26.8034 3.83941L28.1216 7.00304Z" fill="white"/>
<path d="M23.7272 10.3424C24.0787 10.6939 24.606 10.6939 24.9575 10.3424C25.309 9.99085 25.309 9.46358 24.9575 9.11206L22.4969 6.65145C22.1454 6.29994 21.6181 6.29994 21.2666 6.65145C20.9151 7.00297 20.9151 7.53024 21.2666 7.88176L23.7272 10.3424Z" fill="white"/>
<path d="M44.906 10.606L47.3667 8.14543C47.7182 7.79391 47.7182 7.26664 47.3667 6.91513C47.0151 6.56361 46.4879 6.56361 46.1364 6.91513L43.6757 9.28785C43.3242 9.63937 43.3242 10.1666 43.6757 10.5182C43.9394 10.8697 44.5545 10.8697 44.906 10.606Z" fill="white"/>
<path d="M39.37 7.61823C39.4579 7.7061 39.6337 7.7061 39.7215 7.7061C40.0731 7.7061 40.4246 7.53035 40.5124 7.17883L41.8306 4.0152C42.0064 3.5758 41.8306 3.04853 41.3912 2.87277C40.9518 2.69701 40.4246 2.87277 40.2488 3.31216L38.9306 6.4758C38.7549 6.91519 38.9306 7.44247 39.37 7.61823Z" fill="white"/>
</svg>
