<svg width="58" height="59" viewBox="0 0 58 59" fill="none" xmlns="http://www.w3.org/2000/svg">
<path d="M52.3938 43.2882C51.4184 42.7697 50.2671 42.6818 49.239 43.0597L39.1768 46.6627C39.212 46.5309 39.2471 46.3991 39.2647 46.2673C39.4493 45.1336 39.1329 43.9912 38.3947 43.1212C37.6565 42.26 36.5844 41.7591 35.4508 41.7591H29.8441C28.5611 41.7591 27.322 41.3109 26.2674 40.4673C23.8244 38.5164 18.8768 35.9327 12.4002 39.4918V38.3757C12.4002 37.4267 11.6268 36.6621 10.6865 36.6621H5.23805C4.28896 36.6621 3.52441 37.4354 3.52441 38.3757V54.5806C3.52441 55.5297 4.29775 56.2942 5.23805 56.2942H10.6865C11.6356 56.2942 12.4002 55.5209 12.4002 54.5806V53.8951C13.6832 53.8951 16.759 54.106 21.1265 55.8109C24.0177 56.9445 27.0232 57.5157 30.0199 57.5157C31.6808 57.5157 33.3417 57.34 34.9762 56.9885C39.4668 56.013 46.1632 54.0182 52.6135 50.0724C53.4835 49.5364 54.125 48.6488 54.3623 47.6294C54.7753 45.907 53.9668 44.1318 52.3938 43.2882ZM10.8623 54.5806C10.8623 54.6773 10.7832 54.7564 10.6865 54.7564H5.23805C5.14138 54.7564 5.06229 54.6773 5.06229 54.5806V38.3757C5.06229 38.2791 5.14138 38.2 5.23805 38.2H10.6865C10.7832 38.2 10.8623 38.2791 10.8623 38.3757V54.5806ZM52.8771 47.2691C52.7365 47.893 52.3499 48.4291 51.8226 48.7542C45.5568 52.5857 39.0274 54.5279 34.6599 55.477C30.389 56.4085 25.9071 56.0218 21.6977 54.3785C17.1808 52.6121 13.9644 52.3485 12.4705 52.3485H12.4002V41.267C18.4814 37.5145 23.0774 39.8873 25.3096 41.6712C26.6453 42.7345 28.2096 43.297 29.8441 43.297H35.4508C36.1362 43.297 36.7777 43.5957 37.2259 44.1142C37.6741 44.6415 37.8587 45.3182 37.7444 46.0124C37.639 46.6627 37.2259 47.2164 36.6547 47.5591C36.6108 47.5767 36.5756 47.603 36.5405 47.6294C36.1714 47.8315 35.7408 47.9457 35.2926 47.9457H28.9038C28.482 47.9457 28.1305 48.2885 28.1305 48.7191C28.1305 49.1497 28.4732 49.4924 28.9038 49.4924H35.2926C36.0132 49.4924 36.7074 49.3079 37.305 48.9739L49.7574 44.5097C50.3814 44.2812 51.0756 44.3339 51.6908 44.6591C52.6311 45.1512 53.1144 46.2321 52.8771 47.2691Z" fill="white"/>
<path d="M30.7137 39.7291H44.4667C45.8112 39.7291 47.0679 39.2633 48.017 38.4109C51.2861 35.4582 53.1667 31.2488 53.1667 26.8549C53.1667 20.9846 49.8976 15.6855 44.7479 13.0227C45.0906 12.557 45.2928 11.9858 45.2928 11.3706C45.2928 9.88547 44.1328 8.68153 42.6828 8.56728L44.5722 2.48607C44.6776 2.16092 44.5458 1.8094 44.2646 1.61607C43.9834 1.42274 43.6055 1.4491 43.3419 1.6688L41.7425 3.00456L40.1519 1.6688C39.8619 1.42274 39.4488 1.43153 39.1588 1.6688L37.577 3.00456L35.9952 1.6688C35.7052 1.42274 35.2922 1.42274 35.0022 1.6688L33.4203 3.00456L31.8385 1.6688C31.5749 1.4491 31.2058 1.42274 30.9158 1.61607C30.6346 1.80062 30.5028 2.16092 30.6082 2.48607L32.4976 8.56728C31.0388 8.67274 29.8876 9.88547 29.8876 11.3706C29.8876 11.9946 30.0985 12.557 30.4325 13.0227C25.2828 15.6855 22.0137 20.9846 22.0137 26.8549C22.0137 31.2488 23.8855 35.4582 27.1634 38.4109C28.1125 39.2546 29.3691 39.7291 30.7137 39.7291ZM32.9282 4.60395C33.2182 4.85001 33.6312 4.85001 33.9212 4.60395L35.5031 3.26819L37.0849 4.60395C37.3749 4.85001 37.7879 4.85001 38.0779 4.60395L39.6597 3.26819L41.2503 4.60395C41.5403 4.85001 41.9534 4.85001 42.2434 4.60395L42.3137 4.54243L41.0658 8.54971H34.1058L32.8667 4.55122L32.9282 4.60395ZM32.7085 10.0788H42.4631C43.1749 10.0788 43.7461 10.6588 43.7461 11.3618C43.7461 12.0649 43.1661 12.6449 42.4631 12.6449H32.7085C32.0055 12.6449 31.4255 12.0649 31.4255 11.3618C31.4255 10.6588 32.0055 10.0788 32.7085 10.0788ZM31.8737 14.0421C32.1373 14.13 32.4185 14.1827 32.7173 14.1827H42.4719C42.7706 14.1827 43.0431 14.1212 43.3155 14.0421C48.3773 16.3006 51.6288 21.2921 51.6288 26.8549C51.6288 30.8094 49.9416 34.6058 46.9888 37.2685C46.3297 37.8661 45.4334 38.1912 44.4667 38.1912H30.7137C29.7558 38.1912 28.8594 37.8573 28.1916 37.2685C25.2476 34.6058 23.5516 30.8182 23.5516 26.8549C23.5516 21.2921 26.8119 16.3006 31.8737 14.0421Z" fill="white"/>
<path d="M28.7724 28.0237C29.0272 28.261 29.3436 28.5686 29.4051 28.7443C29.4666 28.9464 29.3963 29.377 29.326 29.7549C29.1942 30.4755 29.0448 31.2928 29.5282 31.9519C30.0115 32.6198 30.8375 32.7252 31.5669 32.8219C31.9272 32.8746 32.3666 32.9273 32.5336 33.0504C32.6918 33.1646 32.8851 33.5689 33.0433 33.894C33.3597 34.5619 33.72 35.3176 34.5109 35.5725C35.2754 35.8186 36.0048 35.4319 36.6375 35.0892C36.9803 34.9046 37.3669 34.6937 37.5954 34.6937C37.8151 34.6937 38.2106 34.9046 38.5533 35.0892C39.0542 35.3528 39.5991 35.6516 40.1791 35.6516C40.346 35.6516 40.513 35.6252 40.68 35.5725C41.4709 35.3176 41.8312 34.5619 42.1563 33.894C42.3145 33.5689 42.4991 33.1734 42.666 33.0504C42.833 32.9273 43.2812 32.8658 43.6327 32.8219C44.3621 32.7252 45.1882 32.611 45.6715 31.9431C46.1548 31.284 46.0054 30.4667 45.8736 29.7461C45.8033 29.3682 45.7242 28.9376 45.7945 28.7355C45.856 28.551 46.1724 28.2522 46.4272 28.0149C46.9369 27.5228 47.5785 26.9164 47.5785 26.0728C47.5785 25.2292 46.9369 24.6228 46.4272 24.1307C46.1724 23.8934 45.856 23.5858 45.7945 23.4101C45.7242 23.2079 45.8033 22.7773 45.8736 22.3995C46.0054 21.6789 46.1548 20.8616 45.6715 20.2025C45.1882 19.5346 44.3621 19.4292 43.6327 19.3325C43.2724 19.2886 42.833 19.227 42.666 19.104C42.5078 18.9898 42.3145 18.5855 42.1563 18.2604C41.84 17.5925 41.4797 16.8367 40.6888 16.5819C39.9242 16.3358 39.2036 16.7225 38.5621 17.0652C38.2194 17.2498 37.8327 17.4607 37.6042 17.4607C37.3845 17.4607 36.9891 17.2498 36.6463 17.0652C36.0048 16.7225 35.2842 16.3358 34.5197 16.5819C33.7288 16.8367 33.3685 17.5925 33.0433 18.2604C32.8851 18.5855 32.7006 18.981 32.5336 19.104C32.3666 19.227 31.9185 19.2886 31.5669 19.3325C30.8375 19.4292 30.0115 19.5434 29.5282 20.2025C29.0448 20.8616 29.1942 21.6789 29.326 22.3995C29.3963 22.7773 29.4754 23.2079 29.4051 23.4101C29.3436 23.5946 29.0272 23.8934 28.7724 24.1307C28.2627 24.6228 27.6212 25.2292 27.6212 26.0728C27.6124 26.934 28.2539 27.5404 28.7724 28.0237ZM29.8269 25.2643C30.2488 24.8689 30.6794 24.4558 30.8639 23.9022C31.0485 23.331 30.9342 22.6982 30.8375 22.1446C30.7848 21.837 30.6794 21.257 30.7672 21.1252C30.8639 20.9934 31.4263 20.9143 31.7691 20.8704C32.3579 20.7913 32.9554 20.7122 33.4388 20.3607C33.9133 20.0179 34.1769 19.4731 34.4318 18.937C34.5812 18.6295 34.8272 18.111 34.9942 18.0582C35.1348 18.0143 35.6621 18.2955 35.9169 18.4361C36.4178 18.7086 36.9891 19.0161 37.6042 19.0161C38.2194 19.0161 38.7818 18.7086 39.2915 18.4361C39.5463 18.2955 40.0736 18.0143 40.2142 18.0582C40.3812 18.111 40.6272 18.6295 40.7766 18.937C41.0315 19.4643 41.2863 20.0092 41.7697 20.3607C42.253 20.7122 42.8857 20.8001 43.4394 20.8704C43.7733 20.9143 44.3445 20.9934 44.4412 21.1252C44.5378 21.257 44.4324 21.8282 44.3709 22.1446C44.2654 22.6982 44.1512 23.331 44.3445 23.9022C44.5203 24.4558 44.9597 24.8689 45.3727 25.2643C45.6451 25.5192 46.0494 25.9058 46.0494 26.0904C46.0494 26.2749 45.6451 26.6616 45.3727 26.9164C44.9509 27.3119 44.5203 27.7249 44.3445 28.2786C44.16 28.8498 44.2742 29.4825 44.3709 30.0361C44.4236 30.3437 44.5291 30.9237 44.4412 31.0555C44.3445 31.1873 43.7821 31.2664 43.4394 31.3104C42.8857 31.3807 42.253 31.4686 41.7697 31.8201C41.2951 32.1628 41.0315 32.7076 40.7766 33.2437C40.6272 33.5513 40.3812 34.0698 40.2142 34.1225C40.0736 34.1664 39.5463 33.8852 39.2915 33.7446C38.7906 33.4722 38.2194 33.1646 37.6042 33.1646C36.9891 33.1646 36.4266 33.4722 35.9169 33.7446C35.6621 33.8852 35.126 34.1664 34.9942 34.1225C34.8272 34.0698 34.5812 33.5513 34.4318 33.2437C34.1769 32.7164 33.9221 32.1716 33.4388 31.8201C32.9554 31.4686 32.3227 31.3895 31.7691 31.3104C31.4263 31.2576 30.8551 31.1786 30.7585 31.0467C30.6618 30.9149 30.7672 30.3437 30.8288 30.0273C30.9254 29.4737 31.0397 28.841 30.8551 28.2698C30.6794 27.7161 30.24 27.3031 29.8269 26.9076C29.5545 26.6528 29.1503 26.2661 29.1503 26.0816C29.1503 25.897 29.5545 25.5192 29.8269 25.2643Z" fill="white"/>
<path d="M34.4665 26.0727C35.7495 26.0727 36.7953 25.027 36.7953 23.744C36.7953 22.4609 35.7495 21.4152 34.4665 21.4152C33.1835 21.4152 32.1377 22.4609 32.1377 23.744C32.1377 25.027 33.1835 26.0727 34.4665 26.0727ZM34.4665 22.9618C34.9059 22.9618 35.2574 23.3133 35.2574 23.7527C35.2574 24.1921 34.9059 24.5436 34.4665 24.5436C34.0271 24.5436 33.6756 24.1921 33.6756 23.7527C33.6756 23.3133 34.0359 22.9618 34.4665 22.9618Z" fill="white"/>
<path d="M38.377 28.4279C38.377 29.7109 39.4227 30.7567 40.7057 30.7567C41.9888 30.7567 43.0345 29.7109 43.0345 28.4279C43.0345 27.1449 41.9888 26.0991 40.7057 26.0991C39.4227 26.0991 38.377 27.1449 38.377 28.4279ZM41.4967 28.4279C41.4967 28.8673 41.1451 29.2188 40.7057 29.2188C40.2663 29.2188 39.9148 28.8673 39.9148 28.4279C39.9148 27.9885 40.2663 27.637 40.7057 27.637C41.1451 27.637 41.4967 27.9885 41.4967 28.4279Z" fill="white"/>
<path d="M34.3346 31.0204C34.4664 31.1082 34.6158 31.1434 34.7564 31.1434C35.0024 31.1434 35.2485 31.0204 35.3979 30.8007L41.0573 22.2149C41.2946 21.8634 41.1891 21.3801 40.8376 21.1516C40.4773 20.9143 40.0027 21.0198 39.7743 21.3713L34.1149 29.957C33.8864 30.3086 33.983 30.7831 34.3346 31.0204Z" fill="white"/>
</svg>
