<svg width="58" height="59" viewBox="0 0 58 59" fill="none" xmlns="http://www.w3.org/2000/svg">
<path d="M52.5626 22.25V21.3438C52.5626 21.3247 52.5527 21.3084 52.5518 21.2894C52.5465 21.2072 52.53 21.1261 52.5028 21.0483C52.4944 21.0194 52.4844 20.991 52.4729 20.9631C52.4305 20.8692 52.3726 20.7831 52.3017 20.7085L52.2962 20.7021L40.515 8.92087C40.3451 8.75146 40.115 8.6563 39.8751 8.65625H36.2501V5.9375C36.2501 5.69715 36.1547 5.46664 35.9847 5.29668C35.8148 5.12673 35.5843 5.03125 35.3439 5.03125H30.8126C30.5723 5.03125 30.3418 5.12673 30.1718 5.29668C30.0019 5.46664 29.9064 5.69715 29.9064 5.9375V8.65625H17.2189H17.2089H17.2008C17.189 8.65625 17.1781 8.6635 17.1663 8.66441C17.0708 8.66981 16.9768 8.69093 16.8881 8.72694C16.8603 8.73846 16.833 8.75147 16.8066 8.76591C16.7286 8.80576 16.6572 8.85708 16.5945 8.91816C16.5827 8.92994 16.5655 8.93447 16.5537 8.94716L5.67871 20.7284L7.00909 21.9591L17.2497 10.8702L28.0939 21.7189V37.6562H21.7501V26.7812C21.7501 26.5409 21.6547 26.3104 21.4847 26.1404C21.3148 25.9705 21.0843 25.875 20.8439 25.875H14.5001C14.2598 25.875 14.0293 25.9705 13.8593 26.1404C13.6894 26.3104 13.5939 26.5409 13.5939 26.7812V33.125H15.4064V27.6875H19.9376V37.6562H19.0314V39.4688H38.9689V37.6562H29.9064V22.25H52.5626ZM31.7189 6.84375H34.4376V12.2812H31.7189V6.84375ZM29.3753 20.4375L19.4066 10.4688H29.9064V13.1875C29.9064 13.4279 30.0019 13.6584 30.1718 13.8283C30.3418 13.9983 30.5723 14.0938 30.8126 14.0938H35.3439C35.5843 14.0938 35.8148 13.9983 35.9847 13.8283C36.1547 13.6584 36.2501 13.4279 36.2501 13.1875V10.4688H39.5L49.4687 20.4375H29.3753Z" fill="white"/>
<path d="M33.5312 25.875C33.2909 25.875 33.0604 25.9705 32.8904 26.1404C32.7205 26.3104 32.625 26.5409 32.625 26.7812V31.3125C32.625 31.5529 32.7205 31.7834 32.8904 31.9533C33.0604 32.1233 33.2909 32.2188 33.5312 32.2188H38.0625C38.3029 32.2188 38.5334 32.1233 38.7033 31.9533C38.8733 31.7834 38.9688 31.5529 38.9688 31.3125V26.7812C38.9688 26.5409 38.8733 26.3104 38.7033 26.1404C38.5334 25.9705 38.3029 25.875 38.0625 25.875H33.5312ZM37.1562 30.4062H34.4375V27.6875H37.1562V30.4062Z" fill="white"/>
<path d="M42.5938 25.875C42.3534 25.875 42.1229 25.9705 41.9529 26.1404C41.783 26.3104 41.6875 26.5409 41.6875 26.7812V31.3125C41.6875 31.5529 41.783 31.7834 41.9529 31.9533C42.1229 32.1233 42.3534 32.2188 42.5938 32.2188H47.125C47.3654 32.2188 47.5959 32.1233 47.7658 31.9533C47.9358 31.7834 48.0312 31.5529 48.0312 31.3125V26.7812C48.0312 26.5409 47.9358 26.3104 47.7658 26.1404C47.5959 25.9705 47.3654 25.875 47.125 25.875H42.5938ZM46.2188 30.4062H43.5V27.6875H46.2188V30.4062Z" fill="white"/>
<path d="M1.8125 36.8506C1.81376 38.117 2.10845 39.3658 2.67344 40.4992L9.15766 53.4676L10.7798 52.6574L4.29472 39.6881C3.8556 38.8066 3.62638 37.8354 3.625 36.8506V26.3281C3.625 25.9676 3.76822 25.6218 4.02315 25.3669C4.27808 25.112 4.62385 24.9687 4.98438 24.9687C5.3449 24.9687 5.69067 25.112 5.9456 25.3669C6.20053 25.6218 6.34375 25.9676 6.34375 26.3281V36.75C6.3435 36.9662 6.42102 37.1753 6.56216 37.3391L7.70766 38.6767L7.72397 38.6948L11.9997 43.6792C12.1588 43.8514 12.3784 43.9552 12.6124 43.9689C12.8465 43.9826 13.0767 43.905 13.2548 43.7525C13.4328 43.6 13.5449 43.3845 13.5674 43.1511C13.5898 42.9177 13.521 42.6847 13.3753 42.5011L9.08969 37.504C8.86207 37.2382 8.74938 36.8928 8.77641 36.5439C8.80343 36.195 8.96795 35.8711 9.23378 35.6435C9.49961 35.4159 9.84497 35.3032 10.1939 35.3302C10.5428 35.3572 10.8667 35.5217 11.0943 35.7876L15.6256 40.9713C15.6672 41.0186 15.7133 41.0617 15.7633 41.1C16.7751 41.8612 17.5967 42.8466 18.1636 43.9787C18.7306 45.1108 19.0276 46.3589 19.0312 47.625V53.0625H20.8438V47.625C20.8399 46.0946 20.4855 44.5854 19.8078 43.2132C19.1301 41.841 18.1471 40.6422 16.9342 39.7089L12.4591 34.5949C12.1504 34.246 11.7686 33.9694 11.3408 33.7847C10.913 33.6 10.4498 33.5119 9.98416 33.5265C9.3184 33.5506 8.67785 33.7872 8.15625 34.2016V26.3281C8.15625 25.4869 7.82207 24.6801 7.22723 24.0853C6.63239 23.4904 5.82561 23.1563 4.98438 23.1562C4.14314 23.1563 3.33636 23.4904 2.74152 24.0853C2.14668 24.6801 1.8125 25.4869 1.8125 26.3281V36.8506Z" fill="white"/>
<path d="M53.0156 23.1562C52.1744 23.1562 51.3676 23.4904 50.7728 24.0853C50.1779 24.6801 49.8438 25.4869 49.8438 26.3281V34.2016C49.3221 33.7872 48.6816 33.5506 48.0158 33.5265C47.5503 33.513 47.0875 33.6017 46.6599 33.7863C46.2323 33.9709 45.8504 34.2469 45.5409 34.5949L41.0658 39.7089C39.8529 40.6422 38.8699 41.841 38.1922 43.2132C37.5145 44.5854 37.1601 46.0946 37.1562 47.625V53.0625H38.9688V47.625C38.9718 46.3593 39.2679 45.1115 39.8339 43.9795C40.4 42.8474 41.2205 41.8618 42.2312 41.1C42.2812 41.0617 42.3274 41.0186 42.369 40.9713L46.9048 35.7876C47.0313 35.6362 47.1914 35.5164 47.3723 35.4378C47.5532 35.3591 47.75 35.3237 47.947 35.3344C48.1937 35.3434 48.433 35.4215 48.6375 35.5597C48.8421 35.698 49.0037 35.8909 49.104 36.1165C49.2043 36.3421 49.2392 36.5914 49.2048 36.8359C49.1704 37.0804 49.0681 37.3103 48.9094 37.4995L44.6247 42.5047C44.479 42.6884 44.4101 42.9214 44.4326 43.1547C44.4551 43.3881 44.5672 43.6037 44.7452 43.7562C44.9233 43.9086 45.1535 43.9862 45.3876 43.9725C45.6216 43.9588 45.8412 43.855 46.0003 43.6828L50.2769 38.6984L50.2923 38.6803L51.4378 37.3427C51.5798 37.178 51.6574 36.9674 51.6562 36.75V26.3281C51.6562 25.9676 51.7995 25.6218 52.0544 25.3669C52.3093 25.112 52.6551 24.9687 53.0156 24.9687C53.3762 24.9687 53.7219 25.112 53.9768 25.3669C54.2318 25.6218 54.375 25.9676 54.375 26.3281V36.8506C54.3736 37.8354 54.1444 38.8066 53.7053 39.6881L47.2202 52.6574L48.8423 53.4676L55.3266 40.4992C55.8916 39.3658 56.1862 38.117 56.1875 36.8506V26.3281C56.1875 25.4869 55.8533 24.6801 55.2585 24.0853C54.6636 23.4904 53.8569 23.1562 53.0156 23.1562Z" fill="white"/>
</svg>
