<svg width="58" height="59" viewBox="0 0 58 59" fill="none" xmlns="http://www.w3.org/2000/svg">
<path d="M33.2922 11.0563V23.0043C33.2922 27.6443 29.6962 31.7043 25.0562 31.8203C20.1842 31.8203 16.2402 27.9923 16.2402 23.2363V11.0563C16.2402 9.89626 16.9362 8.96826 17.9802 8.62026C19.9522 8.04026 22.2722 7.69226 24.7082 7.69226C27.1442 7.69226 29.4642 8.04026 31.4362 8.62026C32.5962 8.85226 33.2922 9.89626 33.2922 11.0563Z" stroke="white" stroke-width="1.95" stroke-miterlimit="10" stroke-linecap="round" stroke-linejoin="round"/>
<path d="M16.2402 16.8563C27.7242 16.3923 29.2322 11.5203 29.5802 11.6363" stroke="white" stroke-width="1.95" stroke-miterlimit="10" stroke-linecap="round" stroke-linejoin="round"/>
<path d="M27.8398 13.4923C28.7678 16.3923 33.1758 15.3483 33.1758 15.3483" stroke="white" stroke-width="1.95" stroke-miterlimit="10" stroke-linecap="round" stroke-linejoin="round"/>
<path d="M26.4482 27.0643H36.7722C37.4682 27.0643 38.0482 26.4843 38.0482 25.7883V23.4683" stroke="white" stroke-width="1.95" stroke-miterlimit="10" stroke-linecap="round" stroke-linejoin="round"/>
<path d="M11.4844 15.9283C11.4844 8.50426 17.4004 2.58826 24.7084 2.58826C28.4204 2.58826 31.6684 4.09626 34.1044 6.41626C36.5404 8.85226 37.9324 12.1003 37.9324 15.8123V15.9283" stroke="white" stroke-width="1.95" stroke-miterlimit="10" stroke-linecap="round" stroke-linejoin="round"/>
<path d="M37.468 23.5841H36.54V15.8121H37.468C39.44 15.8121 40.948 17.3201 40.948 19.2921V20.1041C40.948 21.9601 39.324 23.5841 37.468 23.5841Z" stroke="white" stroke-width="1.95" stroke-miterlimit="10" stroke-linecap="round" stroke-linejoin="round"/>
<path d="M12.064 23.5843H12.992V15.8123H12.064C10.092 15.8123 8.58398 17.3203 8.58398 19.2923V20.1043C8.58398 21.9603 10.208 23.5843 12.064 23.5843Z" stroke="white" stroke-width="1.95" stroke-miterlimit="10" stroke-linecap="round" stroke-linejoin="round"/>
<path d="M24.7078 28.8043C25.6687 28.8043 26.4478 28.0253 26.4478 27.0643C26.4478 26.1034 25.6687 25.3243 24.7078 25.3243C23.7468 25.3243 22.9678 26.1034 22.9678 27.0643C22.9678 28.0253 23.7468 28.8043 24.7078 28.8043Z" stroke="white" stroke-width="1.95" stroke-miterlimit="10" stroke-linecap="round" stroke-linejoin="round"/>
<path d="M45.4719 41.4481C46.7479 43.5361 47.4439 46.0881 47.4439 49.4521C47.4439 50.0321 47.4439 50.7281 47.3279 51.3081C47.0959 54.2081 44.6599 56.4121 41.7599 56.4121H7.77189C4.87189 56.4121 2.43589 54.2081 2.20389 51.3081C2.20389 50.7281 2.08789 50.0321 2.08789 49.4521C2.08789 40.9841 6.72789 37.1561 13.5719 35.5321C14.8479 38.6641 17.5159 44.5801 20.4159 48.1761C21.8079 50.0321 23.3159 51.1921 24.8239 51.1921C26.3319 51.1921 27.7239 49.9161 29.2319 48.1761C32.1319 44.5801 34.7999 38.7801 36.0759 35.5321C37.3519 35.7641 38.5119 36.2281 39.5559 36.6921" stroke="white" stroke-width="1.95" stroke-miterlimit="10" stroke-linecap="round" stroke-linejoin="round"/>
<path d="M27.2598 39.9402L29.1158 48.0602" stroke="white" stroke-width="1.95" stroke-miterlimit="10" stroke-linecap="round" stroke-linejoin="round"/>
<path d="M20.416 48.0602L22.272 39.9402" stroke="white" stroke-width="1.95" stroke-miterlimit="10" stroke-linecap="round" stroke-linejoin="round"/>
<path d="M21.5762 35.4161H27.9562V39.9401H21.5762V35.4161Z" stroke="white" stroke-width="1.95" stroke-miterlimit="10" stroke-linecap="round" stroke-linejoin="round"/>
<path d="M54.8684 29.2682H40.6004C40.0204 29.2682 39.4404 29.7322 39.4404 30.4282V39.3602C39.4404 39.9402 39.9044 40.5202 40.6004 40.5202H42.5724L42.2244 44.0002L46.6324 40.5202H54.7524C55.3324 40.5202 55.9124 40.0562 55.9124 39.3602V30.4282C56.0284 29.7322 55.4484 29.2682 54.8684 29.2682Z" stroke="white" stroke-width="1.95" stroke-miterlimit="10" stroke-linecap="round" stroke-linejoin="round"/>
<path d="M43.5 33.0962H51.852H43.5Z" fill="white"/>
<path d="M43.5 33.0962H51.852" stroke="white" stroke-width="1.95" stroke-miterlimit="10" stroke-linecap="round" stroke-linejoin="round"/>
<path d="M43.5 36.5764H47.212H43.5Z" fill="white"/>
<path d="M43.5 36.5764H47.212" stroke="white" stroke-width="1.95" stroke-miterlimit="10" stroke-linecap="round" stroke-linejoin="round"/>
</svg>
